<svg xmlns="http://www.w3.org/2000/svg" version="1.1" xmlns:xlink="http://www.w3.org/1999/xlink" xmlns:svgjs="http://svgjs.dev/svgjs" width="2000" height="1247" viewBox="0 0 2000 1247"><g transform="matrix(1,0,0,1,-1.2121212121212466,0.504858299595071)"><svg viewBox="0 0 396 247" data-background-color="#ffffff" preserveAspectRatio="xMidYMid meet" height="1247" width="2000" xmlns="http://www.w3.org/2000/svg" xmlns:xlink="http://www.w3.org/1999/xlink"><g id="tight-bounds" transform="matrix(1,0,0,1,0.2400000000000091,-0.09999999999999432)"><svg viewBox="0 0 395.52 247.2" height="247.2" width="395.52"><g><svg></svg></g><g><svg viewBox="0 0 395.52 247.2" height="247.2" width="395.52"><g transform="matrix(1,0,0,1,75.54432000000001,95.67262307503074)"><svg viewBox="0 0 244.43135999999996 55.85475384993849" height="55.85475384993849" width="244.43135999999996"><g><svg viewBox="0 0 244.43135999999996 55.85475384993849" height="55.85475384993849" width="244.43135999999996"><g><svg viewBox="0 0 244.43135999999996 55.85475384993849" height="55.85475384993849" width="244.43135999999996"><g><svg viewBox="0 0 244.43135999999996 55.85475384993849" height="55.85475384993849" width="244.43135999999996"><g id="textblocktransform"><svg viewBox="0 0 244.43135999999996 55.85475384993849" height="55.85475384993849" width="244.43135999999996" id="textblock"><g><svg viewBox="0 0 244.43135999999996 55.85475384993849" height="55.85475384993849" width="244.43135999999996"><g transform="matrix(1,0,0,1,0,0)"><svg width="244.43135999999996" viewBox="0.12 -40.16 178.62 40.81999999999999" height="55.85475384993849" data-palette-color="#0b86fa"><path d="M36.62-34.23L36.62-33.64Q36.62-33.45 36.43-33.45L36.43-33.45 35.52-33.45Q32.42-32.84 30.96-28.37L30.96-28.37Q30.57-27.2 30.15-26.1L30.15-26.1 20.56-0.2Q20.34 0.42 20.02 0.54 19.7 0.66 19.14 0.66L19.14 0.66 17.99 0.66Q17.41 0.66 17.24 0.12L17.24 0.12 4.37-31.05Q3.59-32.98 0.51-33.42L0.51-33.42Q0.34-33.45 0.23-33.45 0.12-33.45 0.12-33.64L0.12-33.64 0.12-34.23Q0.12-34.42 0.32-34.42L0.32-34.42 14.72-34.42Q14.92-34.42 14.92-34.23L14.92-34.23 14.92-33.64Q14.92-33.45 14.72-33.45L14.72-33.45 14.36-33.45Q13.75-33.35 12.94-33.25L12.94-33.25Q9.81-32.86 9.81-30.76L9.81-30.76Q9.81-30.1 10.16-29.35L10.16-29.35 19.41-6.84Q19.65-6.35 19.92-6.86L19.92-6.86 28.42-29.86Q28.59-30.35 28.59-31.02 28.59-31.69 28.03-32.31 27.47-32.93 26.89-33.03 26.32-33.13 25.99-33.18 25.66-33.23 25-33.34 24.34-33.45 24.12-33.45 23.9-33.45 23.9-33.64L23.9-33.64 23.9-34.23Q23.9-34.42 24.1-34.42L24.1-34.42 36.43-34.42Q36.62-34.42 36.62-34.23L36.62-34.23ZM86.37-8.35L83-0.93Q82.88-0.73 82.4-0.84 81.93-0.95 81.29-0.95 80.66-0.95 79.5-0.7 78.34-0.44 75.85 0.11 73.36 0.66 71.31 0.66L71.31 0.66Q66.67 0.66 62.31-1.53 57.95-3.71 55.34-7.73 52.73-11.74 52.73-17.04 52.73-22.34 55.34-26.64L55.34-26.64Q59.15-32.93 66.82-34.84L66.82-34.84Q69.26-35.45 71.7-35.45L71.7-35.45Q75.04-35.45 79.63-34.33L79.63-34.33Q81.03-33.98 81.99-33.62 82.95-33.25 83.17-33.25L83.17-33.25 83.91-33.45 84.66-33.45Q84.96-33.45 84.96-33.03L84.96-33.03 84.96-25.44Q84.96-25.2 84.52-25.2 84.08-25.2 84-25.31 83.93-25.42 83.86-25.57 83.78-25.73 83.7-25.9 83.61-26.07 83.53-26.22 83.44-26.37 83.42-26.44L83.42-26.44Q79.76-33.79 72.31-33.79L72.31-33.79Q65.6-33.79 61.81-29.52 58.03-25.24 58.03-18.2 58.03-11.16 62.19-6.1 66.35-1.05 73.51-1.05L73.51-1.05Q77.41-1.05 80.62-3.37 83.83-5.69 85.66-9.06L85.66-9.06Q85.71-9.2 85.96-9.2L85.96-9.2 86.27-9.2Q86.52-9.2 86.52-8.91 86.52-8.62 86.37-8.35L86.37-8.35ZM99.11-0.93L99.11-0.93Q100.26-0.78 100.26-0.34L100.26-0.34Q100.26-0.05 100.02 0L100.02 0 89.13 0Q88.88-0.05 88.88-0.34L88.88-0.34Q88.88-0.78 90.03-0.93L90.03-0.93Q92.67-1.32 92.67-3.71L92.67-3.71 92.67-34.16Q92.67-35.18 91.55-35.57L91.55-35.57Q91.06-35.74 90.5-35.85 89.93-35.96 89.6-36.06 89.27-36.16 89.19-36.24 89.1-36.33 89.1-36.61 89.1-36.89 89.47-37.08L89.47-37.08 95.7-40.01Q95.99-40.16 96.06-40.16L96.06-40.16Q96.48-40.16 96.48-39.58L96.48-39.58 96.48-3.71Q96.48-1.32 99.11-0.93ZM113.71 0L102.82 0Q102.58-0.05 102.58-0.34L102.58-0.34Q102.58-0.78 103.73-0.93L103.73-0.93Q106.36-1.32 106.36-3.71L106.36-3.71 106.36-16.63Q106.36-17.65 105.24-18.04L105.24-18.04Q104.75-18.21 104.19-18.32 103.63-18.43 103.3-18.53 102.97-18.63 102.88-18.71 102.8-18.8 102.8-19.08 102.8-19.36 103.16-19.56L103.16-19.56 109.39-22.49Q109.68-22.63 109.76-22.63L109.76-22.63Q110.17-22.63 110.17-22.05L110.17-22.05 110.17-3.71Q110.17-1.32 112.81-0.93L112.81-0.93Q113.95-0.78 113.95-0.42 113.95-0.05 113.71 0L113.71 0ZM107.91-29.49Q106.9-29.49 106.13-30.13 105.36-30.76 105.36-31.9 105.36-33.03 106.09-33.69 106.83-34.35 107.84-34.35 108.85-34.35 109.55-33.57 110.24-32.79 110.24-31.88 110.24-30.98 109.58-30.24 108.93-29.49 107.91-29.49ZM134.8-7.69L134.8-7.69 134.75-12.84Q134.75-15.99 134.22-17.26 133.68-18.53 132.85-19.18 132.02-19.82 130.61-19.82 129.21-19.82 124.67-17.63L124.67-17.63Q124.06-17.26 124.04-16.94L124.04-16.94 124.04-3.81Q124.04-1.34 126.67-0.98L126.67-0.98Q127.82-0.81 127.82-0.43 127.82-0.05 127.58 0L127.58 0 116.69 0Q116.44-0.05 116.44-0.34L116.44-0.34Q116.44-0.81 117.59-0.98L117.59-0.98Q120.23-1.34 120.23-3.81L120.23-3.81 120.23-17.82Q120.23-18.85 119.1-19.24L119.1-19.24Q118.62-19.41 118.05-19.52 117.49-19.63 117.16-19.73 116.83-19.82 116.75-19.91 116.66-20 116.66-20.28 116.66-20.56 117.03-20.75L117.03-20.75 123.25-23.68Q123.55-23.83 123.62-23.83L123.62-23.83Q124.04-23.83 124.04-23.24L124.04-23.24 124.04-19.43Q124.11-19.19 124.23-19.19L124.23-19.19Q124.38-19.19 125.28-19.63L125.28-19.63Q127.38-20.68 129.5-21.66 131.63-22.63 133.02-22.63L133.02-22.63Q138.66-22.63 138.66-12.35L138.66-12.35 138.44-5.22 138.44-3.81Q138.44-1.9 140.34-1.32L140.34-1.32Q141.15-1.05 141.89-0.94 142.64-0.83 142.87-0.73 143.1-0.63 143.1-0.34 143.1-0.05 142.86 0L142.86 0 131.09 0Q130.85-0.05 130.85-0.34L130.85-0.34Q130.85-0.81 131.99-0.98L131.99-0.98Q134.61-1.34 134.61-4L134.61-4Q134.8-5.22 134.8-7.69ZM156.19 0L145.3 0Q145.05-0.05 145.05-0.34L145.05-0.34Q145.05-0.78 146.2-0.93L146.2-0.93Q148.84-1.32 148.84-3.71L148.84-3.71 148.84-16.63Q148.84-17.65 147.71-18.04L147.71-18.04Q147.23-18.21 146.66-18.32 146.1-18.43 145.77-18.53 145.44-18.63 145.36-18.71 145.27-18.8 145.27-19.08 145.27-19.36 145.64-19.56L145.64-19.56 151.86-22.49Q152.16-22.63 152.23-22.63L152.23-22.63Q152.65-22.63 152.65-22.05L152.65-22.05 152.65-3.71Q152.65-1.32 155.28-0.93L155.28-0.93Q156.43-0.78 156.43-0.42 156.43-0.05 156.19 0L156.19 0ZM150.39-29.49Q149.37-29.49 148.61-30.13 147.84-30.76 147.84-31.9 147.84-33.03 148.57-33.69 149.3-34.35 150.31-34.35 151.33-34.35 152.02-33.57 152.72-32.79 152.72-31.88 152.72-30.98 152.06-30.24 151.4-29.49 150.39-29.49ZM178.52-19.7L178.52-19.7Q178.52-17.99 176.55-17.99L176.55-17.99Q175.54-17.99 174.85-18.57 174.15-19.14 173.77-19.54 173.4-19.95 172.98-20.29L172.98-20.29Q171.22-21.73 168.7-20.61 166.17-19.48 164.8-15.82L164.8-15.82Q164.05-13.79 164.05-11.79L164.05-11.79Q164.05-7.5 166-4.77 167.95-2.05 171.98-2.05L171.98-2.05Q174.98-2.05 177.38-4.74L177.38-4.74Q178.11-5.54 178.25-5.54 178.4-5.54 178.57-5.4 178.74-5.25 178.74-4.97 178.74-4.69 178.6-4.54L178.6-4.54Q174.86 0.66 169.2 0.66L169.2 0.66Q165.09 0.66 162.47-2.39 159.85-5.44 159.85-9.38L159.85-9.38Q159.87-16.65 163.36-19.85L163.36-19.85Q166.44-22.66 172.13-22.66L172.13-22.66Q175.64-22.66 176.79-21.95 177.94-21.24 178.4-20.17L178.4-20.17Q178.52-19.92 178.52-19.7Z" opacity="1" transform="matrix(1,0,0,1,0,0)" fill="#0b86fa" class="wordmark-text-0" data-fill-palette-color="primary" id="text-0"></path></svg></g></svg></g></svg></g></svg></g></svg></g></svg></g></svg></g><path d="M199.994 89.673L199.994 30.202 386.789 30.202 386.789 216.998 199.994 216.998 199.994 157.527 205.031 157.527 205.031 211.961 381.752 211.961 381.752 35.239 205.031 35.239 205.031 89.673Z" fill="#0b86fa" stroke="transparent" data-fill-palette-color="tertiary"></path></svg></g><defs></defs></svg><rect width="395.52" height="247.2" fill="none" stroke="none" visibility="hidden"></rect></g></svg></g></svg>